HIERARCHY
ROOT Hips
{
	OFFSET	0.00	0.00	0.00
	CHANNELS 6 Xposition Yposition Zposition Zrotation Xrotation Yrotation
	JOINT LeftUpLeg
	{
		OFFSET	 0.126116	-0.014019	-0.065224
		CHANNELS 3 Zrotation Xrotation Yrotation
		JOINT LeftLeg
		{
			OFFSET	 0.000000	 0.000000	 0.569914
			CHANNELS 3 Zrotation Xrotation Yrotation
			JOINT LeftFoot
			{
				OFFSET	 0.000000	 0.000000	 0.544423
				CHANNELS 3 Zrotation Xrotation Yrotation
				JOINT LeftToeBase
				{
					OFFSET	 0.000000	 0.000000	 0.207117
					CHANNELS 3 Zrotation Xrotation Yrotation
					End Site
					{
						OFFSET	 0.000000	 0.000000	 0.207117
					}
				}
			}
		}
	}
	JOINT RightUpLeg
	{
		OFFSET	-0.124023	-0.008373	-0.065224
		CHANNELS 3 Zrotation Xrotation Yrotation
		JOINT RightLeg
		{
			OFFSET	 0.000000	 0.000000	 0.570047
			CHANNELS 3 Zrotation Xrotation Yrotation
			JOINT RightFoot
			{
				OFFSET	 0.000000	 0.000000	 0.544354
				CHANNELS 3 Zrotation Xrotation Yrotation
				JOINT RightToeBase
				{
					OFFSET	 0.000000	 0.000000	 0.207540
					CHANNELS 3 Zrotation Xrotation Yrotation
					End Site
					{
						OFFSET	 0.000000	 0.000000	 0.207540
					}
				}
			}
		}
	}
	JOINT Spine
	{
		OFFSET	 0.000184	-0.007763	 0.117403
		CHANNELS 3 Zrotation Xrotation Yrotation
		JOINT Spine1
		{
			OFFSET	 0.000000	 0.000000	 0.137269
			CHANNELS 3 Zrotation Xrotation Yrotation
			JOINT Spine2
			{
				OFFSET	 0.000000	 0.000000	 0.156879
				CHANNELS 3 Zrotation Xrotation Yrotation
				JOINT LeftShoulder
				{
					OFFSET	 0.080501	-0.002496	 0.160144
					CHANNELS 3 Zrotation Xrotation Yrotation
					JOINT LeftArm
					{
						OFFSET	 0.000000	 0.000000	 0.164363
						CHANNELS 3 Zrotation Xrotation Yrotation
						JOINT LeftForeArm
						{
							OFFSET	 0.000000	 0.000000	 0.364576
							CHANNELS 3 Zrotation Xrotation Yrotation
							JOINT LeftHand
							{
								OFFSET	 0.000000	 0.000000	 0.360812
								CHANNELS 3 Zrotation Xrotation Yrotation
								JOINT LeftHandIndex1
								{
									OFFSET	 0.000000	 0.000000	 0.086006
									CHANNELS 3 Zrotation Xrotation Yrotation
									JOINT LeftHandIndex2
									{
										OFFSET	 0.000000	 0.000000	 0.047236
										CHANNELS 3 Zrotation Xrotation Yrotation
										JOINT LeftHandIndex3
										{
											OFFSET	-0.004284	-0.000551	 0.038166
											CHANNELS 3 Zrotation Xrotation Yrotation
											End Site
											{
												OFFSET	-0.004284	-0.000551	 0.038166
											}
										}
									}
								}
							}
						}
					}
				}
				JOINT Neck
				{
					OFFSET	 0.000000	 0.000000	 0.176489
					CHANNELS 3 Zrotation Xrotation Yrotation
					JOINT Head
					{
						OFFSET	 0.000000	-0.001747	 0.077940
						CHANNELS 3 Zrotation Xrotation Yrotation
						End Site
						{
							OFFSET	 0.000000	-0.001747	 0.077940
						}
					}
				}
				JOINT RightShoulder
				{
					OFFSET	-0.080363	 0.000306	 0.159706
					CHANNELS 3 Zrotation Xrotation Yrotation
					JOINT RightArm
					{
						OFFSET	 0.000000	 0.000000	 0.164196
						CHANNELS 3 Zrotation Xrotation Yrotation
						JOINT RightForeArm
						{
							OFFSET	 0.000000	 0.000000	 0.365611
							CHANNELS 3 Zrotation Xrotation Yrotation
							JOINT RightHand
							{
								OFFSET	 0.000000	 0.000000	 0.360648
								CHANNELS 3 Zrotation Xrotation Yrotation
								JOINT RightHandIndex1
								{
									OFFSET	 0.000000	 0.000000	 0.069977
									CHANNELS 3 Zrotation Xrotation Yrotation
									JOINT RightHandIndex2
									{
										OFFSET	 0.000000	 0.000000	 0.052305
										CHANNELS 3 Zrotation Xrotation Yrotation
										JOINT RightHandIndex3
										{
											OFFSET	 0.009002	-0.000782	 0.042196
											CHANNELS 3 Zrotation Xrotation Yrotation
											End Site
											{
												OFFSET	 0.009002	-0.000782	 0.042196
											}
										}
									}
								}
							}
						}
					}
				}
			}
		}
	}
}
MOTION
Frames:    5
Frame Time: 0.03333334
 1.254187	 7.352039	-0.307467	-18.311710	 4.099880	-1.061967	 9.438216	 18.217830	-176.293500	-5.736057	-11.624760	 1.534080	-10.267580	 89.004170	 13.710260	-2.276404	 41.793520	-0.324804	 4.498869	-45.701190	-179.743300	-0.215164	-42.346260	 3.634099	-176.339400	 84.496120	-178.918000	 2.389882	 27.124150	-0.027133	 1.710308	 2.168304	 2.683263	 3.637914	-5.580946	 1.428848	 4.944599	-9.705585	 0.038853	-91.776180	 78.527400	 180.000000	 42.505690	 62.260700	-57.811190	-6.402468	-4.587647	-26.631960	 4.282419	-10.512150	-5.451211	-3.812334	 37.924440	-2.927599	-2.450526	 36.184240	 0.754587	-1.378229	 35.397820	-2.634230	-0.271041	 5.022282	-2.303289	 1.489151	-23.703430	-1.639900	 89.782090	 78.203890	-180.000000	-30.389470	 73.180690	 33.897710	 3.857077	-6.482028	 19.663820	-12.983380	-11.598810	 9.723465	 6.437017	 35.671460	-0.771858	 2.830251	 35.756010	-7.813440	-2.350882	 35.473990	 5.254307
 1.234913	 7.296299	-0.309124	-17.280340	 4.367724	-1.377938	 8.796249	 20.518840	-176.755500	-4.886073	-11.621990	 1.555369	 1.363470	 87.754320	 2.208560	-2.222215	 45.521520	-0.434982	 5.170341	-44.901980	-178.729100	 0.653873	-42.482110	 4.538357	-175.567000	 86.680580	-178.862200	 2.377321	 29.920800	 0.033501	 1.433489	 1.793856	 2.452102	 3.363398	-5.807840	 1.203705	 4.836302	-9.667878	-0.083417	-91.776180	 78.527380	-180.000000	 44.348070	 63.387080	-59.379050	-6.192409	-4.538038	-23.941810	 4.988603	-10.542280	-5.442441	-3.812334	 37.924440	-2.927599	-2.450526	 36.184240	 0.754587	-1.378229	 35.397820	-2.634230	-0.501290	 5.161168	-2.254215	 1.331830	-23.832620	-1.526001	 89.782090	 78.203830	-180.000000	-28.770740	 73.874900	 31.528220	 3.924491	-6.348330	 18.743860	-13.356510	-11.615630	 9.710898	 6.437017	 35.671460	-0.771858	 2.830251	 35.756010	-7.813440	-2.350882	 35.473990	 5.254307
 1.210086	 7.229497	-0.309822	-16.490920	 4.480492	-1.454734	 8.449225	 23.100670	-177.869000	-3.747664	-11.611870	 1.630067	 4.835905	 84.003940	-0.729923	-2.120080	 50.751220	-0.613222	 4.860877	-43.357850	-178.740300	 4.232900	-44.712530	 7.216501	 7.117478	 89.381350	 0.454655	 2.374382	 30.474980	 0.045789	 1.132754	 1.287530	 1.747841	 3.186477	-6.164262	 0.962849	 4.923281	-9.716054	-0.172562	-91.776170	 78.527420	-180.000000	 45.325600	 65.630590	-59.037400	-6.651087	-4.425191	-21.091520	 5.775955	-10.589360	-5.427208	-3.812334	 37.924440	-2.927599	-2.450526	 36.184240	 0.754587	-1.378229	 35.397820	-2.634230	-0.745972	 4.848544	-2.096970	 1.186780	-23.311920	-1.220095	 89.782120	 78.203870	 180.000000	-26.540450	 74.647480	 28.451820	 4.185371	-6.234769	 18.006850	-13.664760	-11.631110	 9.699244	 6.437017	 35.671460	-0.771858	 2.830251	 35.756010	-7.813440	-2.350882	 35.473990	 5.254307
 1.182186	 7.157712	-0.305138	-16.238480	 4.336072	-1.318558	 8.715839	 25.646510	-179.195600	-3.123202	-11.601370	 1.703643	 4.703400	 76.158430	 0.271841	-2.058966	 53.192010	-0.708994	 3.688879	-41.590360	-179.751200	 6.484665	-47.141720	 8.680402	 4.864050	 86.300480	 3.268147	 2.373016	 30.723150	 0.051332	 1.295474	 0.497569	 0.920912	 3.427662	-6.402522	 0.687687	 4.906247	-9.691446	 0.030818	-91.776180	 78.527400	 180.000000	 44.425220	 68.658570	-55.991340	-8.104439	-4.224551	-18.893170	 6.211080	-10.632800	-5.412500	-3.812334	 37.924440	-2.927599	-2.450526	 36.184240	 0.754587	-1.378229	 35.397820	-2.634230	-0.958525	 4.743442	-1.900385	 1.112203	-22.901490	-0.776651	 89.782110	 78.203870	 180.000000	-24.528170	 75.233030	 25.685740	 4.453582	-6.146780	 17.534310	-13.830200	-11.640690	 9.693476	 6.437017	 35.671460	-0.771858	 2.830251	 35.756010	-7.813440	-2.350882	 35.473990	 5.254307
 1.151909	 7.083311	-0.296651	-16.032850	 4.208936	-1.430201	 9.149305	 27.834510	 179.684100	-3.853524	-11.622440	 1.550995	 3.946128	 63.826640	 1.135782	-2.074322	 52.615050	-0.685493	 3.252490	-38.606730	 179.521800	 5.841554	-48.774780	 8.273219	 4.925465	 85.655170	 2.335208	 2.386937	 27.859170	-0.011415	 1.654264	-0.378492	 0.770422	 3.762941	-6.439722	 0.553782	 4.931623	-9.248209	 0.221852	-91.776180	 78.527400	 180.000000	 41.283750	 71.291500	-49.667320	-9.899685	-3.941750	-17.983320	 5.799196	-10.653540	-5.409997	-3.812334	 37.924440	-2.927599	-2.450526	 36.184240	 0.754587	-1.378229	 35.397820	-2.634230	-0.961939	 4.659025	-1.863534	 1.112002	-21.927940	-0.538906	 89.782120	 78.203870	 180.000000	-24.116820	 75.480210	 24.956520	 4.414858	-6.130934	 17.331980	-13.970510	-11.649500	 9.687633	 6.437017	 35.671460	-0.771858	 2.830251	 35.756010	-7.813440	-2.350882	 35.473990	 5.254307
